<svg xmlns="http://www.w3.org/2000/svg" width="21.875" height="21.875" viewBox="0 0 21.875 21.875">
  <path id="Tracé_6" data-name="Tracé 6" d="M10.937-11.979a2.606,2.606,0,0,0-2.6,2.6,2.606,2.606,0,0,0,2.6,2.6,2.606,2.606,0,0,0,2.6-2.6A2.608,2.608,0,0,0,10.937-11.979Zm6.089-2a2.639,2.639,0,0,0-1.485-1.485,17.328,17.328,0,0,0-4.6-.314,17.2,17.2,0,0,0-4.6.314,2.639,2.639,0,0,0-1.485,1.485,17.362,17.362,0,0,0-.314,4.606A17.294,17.294,0,0,0,4.85-4.769,2.639,2.639,0,0,0,6.334-3.284a17.33,17.33,0,0,0,4.6.314,17.2,17.2,0,0,0,4.6-.314,2.639,2.639,0,0,0,1.485-1.485,17.222,17.222,0,0,0,.314-4.606,17.232,17.232,0,0,0-.314-4.606Zm-6.089,8.61a4.006,4.006,0,0,1-4-4,4.006,4.006,0,0,1,4-4,4.006,4.006,0,0,1,4,4v0a4,4,0,0,1-4,4Zm4.169-7.241h0a.935.935,0,0,1-.935-.935.935.935,0,0,1,.935-.935.935.935,0,0,1,.935.935v0a.933.933,0,0,1-.932.933Zm4.425-7.7H2.344A2.345,2.345,0,0,0,0-17.969V-.781A2.345,2.345,0,0,0,2.344,1.562H19.531A2.345,2.345,0,0,0,21.875-.781V-17.969A2.345,2.345,0,0,0,19.531-20.312ZM18.7-6.152a4.646,4.646,0,0,1-1.262,3.271,4.648,4.648,0,0,1-3.271,1.262c-1.29.073-5.156.073-6.445,0A4.654,4.654,0,0,1,4.445-2.881,4.632,4.632,0,0,1,3.183-6.152c-.073-1.29-.073-5.157,0-6.445a4.631,4.631,0,0,1,1.262-3.271,4.657,4.657,0,0,1,3.271-1.259c1.29-.073,5.156-.073,6.445,0a4.649,4.649,0,0,1,3.271,1.262A4.648,4.648,0,0,1,18.7-12.592C18.768-11.307,18.768-7.443,18.7-6.152Z" transform="translate(0 20.312)"/>
</svg>
