<svg width="20" height="20" viewBox="0 0 20 20" fill="none" xmlns="http://www.w3.org/2000/svg">
<path d="M4.5423 6.64129H0.337271V20H4.5423V6.64129Z" fill="#242424"/>
<path d="M4.87868 2.40635C4.87868 1.08641 3.77776 0.00025044 2.43972 0C1.10156 0 0 1.08628 0 2.40635C0 3.72642 1.10118 4.8127 2.43934 4.8127C3.77751 4.8127 4.87868 3.72642 4.87868 2.40635Z" fill="#242424"/>
<path d="M10.912 6.64267H6.87387L6.87692 19.9975H11.0819V13.3915C11.0819 11.6493 11.4192 9.96112 13.6049 9.96112C15.7662 9.96112 15.795 11.954 15.795 13.5043V19.9991H20V12.6734C20 9.07794 19.2152 6.31033 14.951 6.31033C13.324 6.24985 11.79 7.08119 10.9693 8.46825H10.912V6.64267Z" fill="#242424"/>
</svg>
