<svg id="Calque_1" data-name="Calque 1" xmlns="http://www.w3.org/2000/svg" viewBox="0 0 797.42 363.77"><defs><style>.cls-1{fill:#fff185;}.cls-2{fill:#1d1d1b;}</style></defs><path class="cls-1" d="M664.42,433.26V633.73H26.49V433.26h265.9a51.22,51.22,0,0,0,4.17,20.57,53.35,53.35,0,0,0,28.36,28.27,53.29,53.29,0,0,0,41.33,0,53.35,53.35,0,0,0,28.36-28.27,51.22,51.22,0,0,0,4.17-20.57Z" transform="translate(-26.49 -269.96)"/><path class="cls-2" d="M99.28,607.53V570.76h5.63L121,597.61H118l15.81-26.85h5.62l.1,36.77H133V580.9h1.31L121,603.38h-3.1L104.22,580.9h1.58v26.63Z" transform="translate(-26.49 -269.96)"/><path class="cls-2" d="M160.69,607.9a14.17,14.17,0,0,1-6.3-1.34,9.73,9.73,0,0,1-4.28-4.1,14,14,0,0,1-1.55-7v-16h6.61v15.18q0,3.74,1.74,5.6a6.26,6.26,0,0,0,4.83,1.86,8.35,8.35,0,0,0,4-.94,6.4,6.4,0,0,0,2.67-2.84,10.39,10.39,0,0,0,.95-4.67V579.48H176v28h-6.25v-7.61l1.1,2.36a9.89,9.89,0,0,1-4.15,4.15A12.44,12.44,0,0,1,160.69,607.9Z" transform="translate(-26.49 -269.96)"/><path class="cls-2" d="M193.31,607.9a24.62,24.62,0,0,1-6.78-.92,18.23,18.23,0,0,1-5.14-2.23l2.52-5a17.11,17.11,0,0,0,4.52,2,18.81,18.81,0,0,0,5.3.76,9.21,9.21,0,0,0,4.44-.81,2.5,2.5,0,0,0,1.39-2.24,2,2,0,0,0-.94-1.76,7.46,7.46,0,0,0-2.47-.92q-1.53-.32-3.39-.57c-1.24-.18-2.49-.41-3.73-.71a13.35,13.35,0,0,1-3.39-1.31,7,7,0,0,1-2.47-2.34,8.14,8.14,0,0,1,.58-8.54,9.9,9.9,0,0,1,4.28-3.07,17.49,17.49,0,0,1,6.54-1.1,25.7,25.7,0,0,1,5.7.65,16.85,16.85,0,0,1,4.86,1.81l-2.57,5a13.46,13.46,0,0,0-4-1.6,18.71,18.71,0,0,0-4-.44,8.86,8.86,0,0,0-4.41.86,2.54,2.54,0,0,0-1.47,2.23,2.12,2.12,0,0,0,.94,1.9,7.36,7.36,0,0,0,2.47,1q1.51.35,3.39.63c1.24.19,2.47.44,3.7.73a14.85,14.85,0,0,1,3.39,1.26A6.61,6.61,0,0,1,205,595.4a7,7,0,0,1,.95,3.83,7.11,7.11,0,0,1-1.55,4.6,10,10,0,0,1-4.36,3A18.81,18.81,0,0,1,193.31,607.9Z" transform="translate(-26.49 -269.96)"/><path class="cls-2" d="M224.83,607.9a17.13,17.13,0,0,1-8.17-1.86,13.65,13.65,0,0,1-5.41-5.1,14.25,14.25,0,0,1-1.92-7.43,14.52,14.52,0,0,1,1.87-7.43,13.54,13.54,0,0,1,5.14-5.1,14.94,14.94,0,0,1,7.49-1.86,14.56,14.56,0,0,1,7.3,1.81,13.06,13.06,0,0,1,5,5.07,15.39,15.39,0,0,1,1.84,7.72c0,.24,0,.55,0,.92s-.05.69-.08,1H214.53v-4.36h19.91l-2.63,1.37a8.21,8.21,0,0,0-1-4.23A7.24,7.24,0,0,0,228,585.5a8.22,8.22,0,0,0-4.2-1,8.55,8.55,0,0,0-4.23,1,6.92,6.92,0,0,0-2.86,2.91,9.16,9.16,0,0,0-1,4.36v1.05a8.78,8.78,0,0,0,1.13,4.47,7.74,7.74,0,0,0,3.23,3,10.54,10.54,0,0,0,4.88,1.08,11.08,11.08,0,0,0,4.26-.79,10.1,10.1,0,0,0,3.36-2.31l3.57,4.09a12.51,12.51,0,0,1-4.8,3.37A17.38,17.38,0,0,1,224.83,607.9Zm-5.57-32.25,7.09-7.2h7.77l-9.19,7.2Z" transform="translate(-26.49 -269.96)"/><path class="cls-2" d="M257.5,607.9a17.13,17.13,0,0,1-8.17-1.86,13.65,13.65,0,0,1-5.41-5.1,14.25,14.25,0,0,1-1.92-7.43,14.52,14.52,0,0,1,1.87-7.43A13.49,13.49,0,0,1,249,581a14.88,14.88,0,0,1,7.48-1.86,14.53,14.53,0,0,1,7.3,1.81,13.16,13.16,0,0,1,5.05,5.07,15.5,15.5,0,0,1,1.83,7.72c0,.24,0,.55,0,.92s-.05.69-.08,1H247.2v-4.36h19.91l-2.62,1.37a8.22,8.22,0,0,0-1-4.23,7.24,7.24,0,0,0-2.81-2.89,8.22,8.22,0,0,0-4.2-1,8.6,8.6,0,0,0-4.23,1,7,7,0,0,0-2.86,2.91,9.16,9.16,0,0,0-1,4.36v1.05a8.78,8.78,0,0,0,1.13,4.47,7.74,7.74,0,0,0,3.23,3,10.55,10.55,0,0,0,4.89,1.08,11.06,11.06,0,0,0,4.25-.79,10.1,10.1,0,0,0,3.36-2.31l3.58,4.09a12.62,12.62,0,0,1-4.81,3.37A17.38,17.38,0,0,1,257.5,607.9Z" transform="translate(-26.49 -269.96)"/><path class="cls-2" d="M292.11,607.53V570.76h5.63l16.07,26.85h-2.94l15.81-26.85h5.62l.1,36.77h-6.56V580.9h1.31l-13.34,22.48h-3.1L297.05,580.9h1.58v26.63Z" transform="translate(-26.49 -269.96)"/><path class="cls-2" d="M350.11,607.9a13.16,13.16,0,0,1-5.52-1.08,8.43,8.43,0,0,1-3.65-3,7.58,7.58,0,0,1-1.29-4.33,8.17,8.17,0,0,1,1.13-4.26,7.57,7.57,0,0,1,3.71-3,17.46,17.46,0,0,1,6.82-1.11h8.15v4.36h-7.67c-2.21,0-3.71.36-4.49,1.08a3.51,3.51,0,0,0-1.19,2.71,3.31,3.31,0,0,0,1.42,2.78,6.52,6.52,0,0,0,3.94,1,8.62,8.62,0,0,0,4.34-1.1,6.58,6.58,0,0,0,2.81-3.26l1.05,3.94a7.37,7.37,0,0,1-3.37,3.84A12.47,12.47,0,0,1,350.11,607.9Zm8.82-.37v-5.72l-.31-1.16v-9.93a5.79,5.79,0,0,0-1.76-4.49,7.76,7.76,0,0,0-5.34-1.6,14.72,14.72,0,0,0-4.57.74,12,12,0,0,0-3.88,2l-2.58-4.79A16.61,16.61,0,0,1,345.9,580a23.07,23.07,0,0,1,6.46-.89q6.15,0,9.46,2.94t3.31,9v16.44Z" transform="translate(-26.49 -269.96)"/><path class="cls-2" d="M373.59,607.53v-28h6.25v7.73L379.1,585a8.72,8.72,0,0,1,3.94-4.34,13.7,13.7,0,0,1,6.67-1.49v6.25c-.24,0-.49-.06-.73-.08l-.69,0a8.17,8.17,0,0,0-6,2.16c-1.48,1.43-2.21,3.62-2.21,6.56v13.55Z" transform="translate(-26.49 -269.96)"/><path class="cls-2" d="M398.64,574.86a4.15,4.15,0,0,1-3-1.15,3.83,3.83,0,0,1-1.18-2.84,3.68,3.68,0,0,1,1.18-2.73,4.16,4.16,0,0,1,3-1.16,4.28,4.28,0,0,1,3,1.08,3.56,3.56,0,0,1,1.18,2.76,3.94,3.94,0,0,1-1.15,2.86A4.07,4.07,0,0,1,398.64,574.86Zm-3.25,32.67v-28h6.51v28Z" transform="translate(-26.49 -269.96)"/><path class="cls-2" d="M422.38,607.9a14.17,14.17,0,0,1-6.3-1.34,9.73,9.73,0,0,1-4.28-4.1,14.06,14.06,0,0,1-1.55-7v-16h6.62v15.18q0,3.74,1.73,5.6a6.3,6.3,0,0,0,4.84,1.86,8.31,8.31,0,0,0,4-.94,6.42,6.42,0,0,0,2.68-2.84,10.39,10.39,0,0,0,.94-4.67V579.48h6.57v28h-6.25v-7.61l1.1,2.36a9.83,9.83,0,0,1-4.15,4.15A12.41,12.41,0,0,1,422.38,607.9Z" transform="translate(-26.49 -269.96)"/><path class="cls-2" d="M455,607.9a24.5,24.5,0,0,1-6.77-.92,18.31,18.31,0,0,1-5.15-2.23l2.52-5a17.26,17.26,0,0,0,4.52,2,18.87,18.87,0,0,0,5.3.76,9.16,9.16,0,0,0,4.44-.81,2.51,2.51,0,0,0,1.4-2.24,2,2,0,0,0-.95-1.76,7.38,7.38,0,0,0-2.47-.92q-1.51-.32-3.39-.57c-1.24-.18-2.48-.41-3.73-.71a13.14,13.14,0,0,1-3.38-1.31,7,7,0,0,1-2.47-2.34,7.22,7.22,0,0,1-.95-3.94,7.34,7.34,0,0,1,1.52-4.6,9.93,9.93,0,0,1,4.29-3.07,17.42,17.42,0,0,1,6.54-1.1,25.68,25.68,0,0,1,5.69.65,16.63,16.63,0,0,1,4.86,1.81l-2.57,5a13.51,13.51,0,0,0-4-1.6,18.87,18.87,0,0,0-4.05-.44,8.86,8.86,0,0,0-4.41.86,2.55,2.55,0,0,0-1.47,2.23,2.11,2.11,0,0,0,.95,1.9,7.38,7.38,0,0,0,2.46,1q1.53.35,3.39.63c1.25.19,2.48.44,3.7.73a14.85,14.85,0,0,1,3.39,1.26,6.56,6.56,0,0,1,2.5,2.29,7.88,7.88,0,0,1-.61,8.43,10,10,0,0,1-4.36,3A18.81,18.81,0,0,1,455,607.9Z" transform="translate(-26.49 -269.96)"/><path class="cls-2" d="M483.26,607.53l16.55-36.77h6.73l16.59,36.77h-7.19l-14.19-33.14h2.74l-14.24,33.14Zm7.62-8.51,1.89-5.35h19.81l1.83,5.35Z" transform="translate(-26.49 -269.96)"/><path class="cls-2" d="M538.52,607.9a14.17,14.17,0,0,1-6.3-1.34,9.73,9.73,0,0,1-4.28-4.1,14.06,14.06,0,0,1-1.55-7v-16H533v15.18q0,3.74,1.73,5.6a6.3,6.3,0,0,0,4.84,1.86,8.31,8.31,0,0,0,4-.94,6.37,6.37,0,0,0,2.68-2.84,10.39,10.39,0,0,0,.94-4.67V579.48h6.57v28h-6.25v-7.61l1.1,2.36a9.83,9.83,0,0,1-4.15,4.15A12.41,12.41,0,0,1,538.52,607.9Z" transform="translate(-26.49 -269.96)"/><path class="cls-2" d="M574.3,607.9a14.78,14.78,0,0,1-7.28-1.78,13.08,13.08,0,0,1-5.07-5,16.53,16.53,0,0,1,0-15.16,12.93,12.93,0,0,1,5.07-5,14.78,14.78,0,0,1,7.28-1.78,12.68,12.68,0,0,1,6.3,1.55,10.82,10.82,0,0,1,4.41,4.72,17.72,17.72,0,0,1,1.63,8.12,18.19,18.19,0,0,1-1.58,8.09,10.63,10.63,0,0,1-4.33,4.75A12.94,12.94,0,0,1,574.3,607.9Zm.78-5.57a8.36,8.36,0,0,0,4.23-1.07,8.14,8.14,0,0,0,3-3.1,9.42,9.42,0,0,0,1.13-4.65,9.2,9.2,0,0,0-1.13-4.65,8.21,8.21,0,0,0-3-3.05,8.88,8.88,0,0,0-8.45,0,8.06,8.06,0,0,0-3,3.05,9.2,9.2,0,0,0-1.13,4.65,9.42,9.42,0,0,0,1.13,4.65,8,8,0,0,0,3,3.1A8.35,8.35,0,0,0,575.08,602.33Zm8.57,5.2v-6.61l.15-7.46-.52-7.46V568.56h6.62v39Z" transform="translate(-26.49 -269.96)"/><path class="cls-2" d="M601.82,574.86a4.13,4.13,0,0,1-3-1.15,3.83,3.83,0,0,1-1.18-2.84,3.68,3.68,0,0,1,1.18-2.73,4.14,4.14,0,0,1,3-1.16,4.3,4.3,0,0,1,3,1.08,3.56,3.56,0,0,1,1.18,2.76,3.94,3.94,0,0,1-1.15,2.86A4.07,4.07,0,0,1,601.82,574.86Zm-3.26,32.67v-28h6.52v28Z" transform="translate(-26.49 -269.96)"/><path class="cls-2" d="M629.61,579.12a13.1,13.1,0,0,1,6,1.31,9.73,9.73,0,0,1,4.15,4,14.07,14.07,0,0,1,1.55,7v16.07h-6.56V592.3c0-2.49-.58-4.34-1.74-5.57a6.47,6.47,0,0,0-4.94-1.84,8.6,8.6,0,0,0-4.09,1,6.51,6.51,0,0,0-2.76,2.81,10.08,10.08,0,0,0-1,4.7v14.18h-6.51v-28H620v7.62l-1.11-2.36a9.8,9.8,0,0,1,4.23-4.15A13.8,13.8,0,0,1,629.61,579.12Z" transform="translate(-26.49 -269.96)"/><path class="cls-2" d="M815.57,338.64A106.69,106.69,0,0,0,758.94,282a107,107,0,0,0-82.85,0,106.76,106.76,0,0,0-28.78,18.17,77.93,77.93,0,0,0-6.15-6.95,80,80,0,0,0-25.39-17.06,78.73,78.73,0,0,0-84.06,14.37,77.48,77.48,0,0,0-24.65-15.29,80.2,80.2,0,0,0-59.59.92A79.34,79.34,0,0,0,405,318.62a78.26,78.26,0,0,0-6.21,31.05h0v83.59a51.22,51.22,0,0,1-4.17,20.57,53.35,53.35,0,0,1-28.36,28.27,53.29,53.29,0,0,1-41.33,0,53.35,53.35,0,0,1-28.36-28.27,51.22,51.22,0,0,1-4.17-20.57V349.67h-.3a78.43,78.43,0,0,0-6.2-31.05,79.43,79.43,0,0,0-42.45-42.45,78.73,78.73,0,0,0-84.06,14.37,77.48,77.48,0,0,0-24.65-15.29,80.2,80.2,0,0,0-59.59.92A79.37,79.37,0,0,0,32.7,318.62a78.09,78.09,0,0,0-6.21,31.05V633.73H79.68V349.67a26.51,26.51,0,1,1,53,0v189.8h53.2V349.67a26.58,26.58,0,0,1,45.32-18.82,27.49,27.49,0,0,1,5.74,8.44,25.37,25.37,0,0,1,2.13,10.38v83.59h.3a103.65,103.65,0,0,0,8.34,41.43,106,106,0,0,0,56.44,56.43,106.93,106.93,0,0,0,82.85,0,108.18,108.18,0,0,0,33.83-22.7,106.32,106.32,0,0,0,22.8-33.73A103.65,103.65,0,0,0,452,433.26h0V349.67a26.51,26.51,0,1,1,53,0v189.8h53.2V349.67a26.57,26.57,0,0,1,45.31-18.82,27.52,27.52,0,0,1,5.75,8.44,25.37,25.37,0,0,1,2.13,10.38v26.12c0,1.42-.1,2.84-.1,4.27V539.47h53.11v-53.2H770.71v53.2h53.2V380.06A103.6,103.6,0,0,0,815.57,338.64Zm-44.86,94.62H664.42V376.85a51.33,51.33,0,0,1,4.07-17.45A53.11,53.11,0,0,1,696.85,331a53.29,53.29,0,0,1,41.33,0,53.11,53.11,0,0,1,28.36,28.36,51.86,51.86,0,0,1,4.17,20.66Z" transform="translate(-26.49 -269.96)"/></svg>